<svg width="620" height="158" viewBox="0 0 620 158" fill="none" xmlns="http://www.w3.org/2000/svg">
<path d="M588.438 46H550.563C547.773 46.0033 545.099 47.1129 543.127 49.0852C541.155 51.0575 540.045 53.7316 540.042 56.5208V136.479C540.045 139.268 541.155 141.943 543.127 143.915C545.099 145.887 547.773 146.997 550.563 147H588.438C591.227 146.997 593.901 145.887 595.873 143.915C597.845 141.943 598.955 139.268 598.958 136.479V56.5208C598.955 53.7316 597.845 51.0575 595.873 49.0852C593.901 47.1129 591.227 46.0033 588.438 46V46ZM544.25 56.5208C544.25 54.8467 544.915 53.241 546.099 52.0572C547.283 50.8734 548.888 50.2083 550.563 50.2083H588.438C590.112 50.2083 591.717 50.8734 592.901 52.0572C594.085 53.241 594.75 54.8467 594.75 56.5208V79.6667H544.25V56.5208ZM594.75 136.479C594.75 138.153 594.085 139.759 592.901 140.943C591.717 142.127 590.112 142.792 588.438 142.792H550.563C548.888 142.792 547.283 142.127 546.099 140.943C544.915 139.759 544.25 138.153 544.25 136.479V83.875H594.75V136.479Z" fill="white"/>
<path d="M550.563 58.625C550.004 58.625 549.469 58.8467 549.075 59.2413C548.68 59.6359 548.458 60.1711 548.458 60.7292V69.1458C548.458 69.7039 548.68 70.2391 549.075 70.6337C549.469 71.0283 550.004 71.25 550.563 71.25C551.121 71.25 551.656 71.0283 552.05 70.6337C552.445 70.2391 552.667 69.7039 552.667 69.1458V60.7292C552.667 60.1711 552.445 59.6359 552.05 59.2413C551.656 58.8467 551.121 58.625 550.563 58.625Z" fill="white"/>
<path d="M550.563 113.333C551.121 113.333 551.656 113.112 552.05 112.717C552.445 112.322 552.667 111.787 552.667 111.229V96.5C552.667 95.9419 552.445 95.4067 552.05 95.0121C551.656 94.6175 551.121 94.3958 550.563 94.3958C550.004 94.3958 549.469 94.6175 549.075 95.0121C548.68 95.4067 548.458 95.9419 548.458 96.5V111.229C548.458 111.787 548.68 112.322 549.075 112.717C549.469 113.112 550.004 113.333 550.563 113.333Z" fill="white"/>
<g filter="url(#filter0_d_3_27)">
<path d="M11.2188 30.75H55.6094V38.9062H20.5938V58.125H47.6406V66H20.5938V96H11.2188V30.75ZM98.875 84.1406V47.625H108.25V96H99.8125L98.9688 90.8906C94.3438 94.7969 89.2344 96.75 83.6406 96.75C77.7031 96.75 73.5 95.1094 71.0312 91.8281C68.4688 88.4844 67.1875 82.7188 67.1875 74.5312V47.625H76.5625V74.0625C76.5625 79.8438 77.3906 83.7812 79.0469 85.875C80.5156 87.75 83.3125 88.6875 87.4375 88.6875C91.5938 88.6875 95.4062 87.1719 98.875 84.1406ZM125.406 26.25H134.781V77.6719C134.781 83.8594 136.188 87.5 139 88.5938C139.938 88.9688 140.938 89.1562 142 89.1562C143.062 89.1562 144.016 89.0312 144.859 88.7812V96L143.125 96.1875C142.562 96.25 142.016 96.2812 141.484 96.2812C135.484 96.2812 131.156 94.3125 128.5 90.375C126.438 87.2812 125.406 83.0625 125.406 77.7188V26.25ZM157.469 26.25H166.844V77.6719C166.844 83.8594 168.25 87.5 171.062 88.5938C172 88.9688 173 89.1562 174.062 89.1562C175.125 89.1562 176.078 89.0312 176.922 88.7812V96L175.188 96.1875C174.625 96.25 174.078 96.2812 173.547 96.2812C167.547 96.2812 163.219 94.3125 160.562 90.375C158.5 87.2812 157.469 83.0625 157.469 77.7188V26.25ZM219.438 30.75H263.828V38.9062H228.812V58.125H255.859V66H228.812V96H219.438V30.75ZM306.297 56.2031C304.578 55.7031 302.516 55.4531 300.109 55.4531C297.734 55.4531 295.781 55.7031 294.25 56.2031C292.719 56.6719 291.375 57.25 290.219 57.9375C288.094 59.1875 286.547 60.5938 285.578 62.1562V96H276.203V47.625H285.203L285.578 54.3281C287.922 51.3906 291.344 49.1875 295.844 47.7188C297.469 47.1562 299.328 46.875 301.422 46.875C303.516 46.875 305.141 47.0312 306.297 47.3438V56.2031ZM326.5 33.5625C326.5 35.3438 325.906 36.7188 324.719 37.6875C323.562 38.625 322.109 39.0938 320.359 39.0938C318.609 39.0938 317.156 38.625 316 37.6875C314.875 36.7188 314.312 35.3438 314.312 33.5625C314.312 31.75 314.875 30.375 316 29.4375C317.156 28.5 318.609 28.0312 320.359 28.0312C322.109 28.0312 323.562 28.5 324.719 29.4375C325.906 30.375 326.5 31.75 326.5 33.5625ZM315.531 47.625H324.906V96H315.531V47.625ZM346.984 52.9219C349.703 50.8281 352.75 49.2969 356.125 48.3281C359.531 47.3594 362.5 46.875 365.031 46.875C367.562 46.875 369.516 46.9375 370.891 47.0625V26.25H380.219V96H371.828L371.453 90.4219C369.547 92.9531 366.656 94.8281 362.781 96.0469C361.281 96.5156 359.75 96.75 358.188 96.75C356.656 96.75 355.141 96.5938 353.641 96.2812C352.141 95.9688 350.641 95.4531 349.141 94.7344C347.672 93.9844 346.266 93.0156 344.922 91.8281C343.578 90.6094 342.375 89.125 341.312 87.375C339.062 83.5312 337.938 78.9844 337.938 73.7344C337.938 68.4844 338.766 64.2344 340.422 60.9844C342.109 57.7031 344.297 55.0156 346.984 52.9219ZM352.656 58.5C351.062 60 349.828 61.9375 348.953 64.3125C348.109 66.6562 347.688 69.5156 347.688 72.8906C347.688 76.2344 348.094 79 348.906 81.1875C349.719 83.3438 350.734 85.0312 351.953 86.25C354.109 88.4375 356.703 89.5312 359.734 89.5312C363.641 89.5312 366.875 88.0938 369.438 85.2188C370.094 84.5 370.562 83.8594 370.844 83.2969V54.4688L369.906 54.375C368.469 54.1875 366.75 54.0938 364.75 54.0938C362.781 54.0938 360.672 54.4531 358.422 55.1719C356.172 55.8594 354.25 56.9688 352.656 58.5ZM423.156 114.469C420.438 115.156 416.938 115.5 412.656 115.5C408.406 115.5 405.297 115.188 403.328 114.562V106.219C405.797 107.281 408.812 107.812 412.375 107.812C415.969 107.844 418.609 107.609 420.297 107.109C421.984 106.609 423.312 105.797 424.281 104.672C426.031 102.641 426.906 98.9688 426.906 93.6562V91.1719C424.531 93.5469 421.406 95.2031 417.531 96.1406C415.969 96.5156 414.406 96.7031 412.844 96.7031C411.281 96.7031 409.75 96.5312 408.25 96.1875C406.781 95.8438 405.312 95.2969 403.844 94.5469C402.375 93.7656 400.969 92.7656 399.625 91.5469C398.281 90.2969 397.094 88.75 396.062 86.9062C393.75 82.9062 392.594 77.9844 392.594 72.1406C392.531 66.7344 394.094 61.9844 397.281 57.8906C400.031 54.3281 403.812 51.5625 408.625 49.5938C413 47.7812 417.734 46.875 422.828 46.875C427.922 46.875 432.406 47.125 436.281 47.625V93.6562C436.281 105.344 431.906 112.281 423.156 114.469ZM426.906 54.4688C424.906 54.2188 422.938 54.0938 421 54.0938C419.062 54.0938 416.891 54.4531 414.484 55.1719C412.078 55.8906 409.969 56.9844 408.156 58.4531C404.188 61.6719 402.203 66.2344 402.203 72.1406C402.203 78.5469 403.75 83.2188 406.844 86.1562C409.156 88.375 411.984 89.4844 415.328 89.4844C419.359 89.4844 422.75 88.0625 425.5 85.2188C426.156 84.5 426.625 83.8594 426.906 83.2969V54.4688ZM474.203 96.75C456.516 96.75 447.672 88.1094 447.672 70.8281C447.672 63.3906 450.125 57.4375 455.031 52.9688C459.438 48.9062 464.469 46.875 470.125 46.875C476.281 46.875 481.094 48.9375 484.562 53.0625C487.781 56.9062 489.391 62.0469 489.391 68.4844V72.1406H457.422C457.422 80.9844 461.031 86.3906 468.25 88.3594C469.969 88.8281 472.609 89.0625 476.172 89.0625C479.766 89.0625 483.281 88.5781 486.719 87.6094V95.5312C483.281 96.3438 479.109 96.75 474.203 96.75ZM480.016 65.25C480.016 62.25 479.188 59.7188 477.531 57.6562C475.594 55.2812 472.922 54.0938 469.516 54.0938C465.922 54.0938 463 55.2344 460.75 57.5156C458.688 59.6406 457.656 62.2188 457.656 65.25H480.016Z" fill="white"/>
</g>
<g filter="url(#filter1_d_3_27)">
<path d="M11.7656 133.531L4 121.25H7.375L13.4375 130.969L19.375 121.25H22.75L15.0156 133.5V143H11.7656V133.531ZM24.125 134.906C24.125 132.375 24.9323 130.323 26.5469 128.75C28.0573 127.281 29.9271 126.547 32.1562 126.547C34.3438 126.547 36.1719 127.281 37.6406 128.75C39.2031 130.312 39.9844 132.365 39.9844 134.906C39.9844 137.438 39.1979 139.479 37.625 141.031C36.1354 142.51 34.3073 143.25 32.1406 143.25C29.9427 143.25 28.0781 142.51 26.5469 141.031C24.9323 139.479 24.125 137.438 24.125 134.906ZM27.375 134.906C27.375 137.573 28.2292 139.385 29.9375 140.344C30.5417 140.677 31.2656 140.844 32.1094 140.844C32.9531 140.844 33.6667 140.677 34.25 140.344C34.8333 140 35.3125 139.552 35.6875 139C36.3854 137.938 36.7344 136.573 36.7344 134.906C36.7344 132.26 35.8958 130.448 34.2188 129.469C33.6354 129.125 32.9375 128.953 32.125 128.953C31.3125 128.953 30.6042 129.125 30 129.469C29.4062 129.802 28.9167 130.245 28.5312 130.797C27.7604 131.88 27.375 133.25 27.375 134.906ZM54.3438 139.047V126.875H57.4688V143H54.6562L54.375 141.297C52.8333 142.599 51.1302 143.25 49.2656 143.25C47.2865 143.25 45.8854 142.703 45.0625 141.609C44.2083 140.495 43.7812 138.573 43.7812 135.844V126.875H46.9062V135.688C46.9062 137.615 47.1823 138.927 47.7344 139.625C48.224 140.25 49.1562 140.562 50.5312 140.562C51.9167 140.562 53.1875 140.057 54.3438 139.047ZM72.7656 129.734C72.1927 129.568 71.5052 129.484 70.7031 129.484C69.9115 129.484 69.2604 129.568 68.75 129.734C68.2396 129.891 67.7917 130.083 67.4062 130.312C66.6979 130.729 66.1823 131.198 65.8594 131.719V143H62.7344V126.875H65.7344L65.8594 129.109C66.6406 128.13 67.7812 127.396 69.2812 126.906C69.8229 126.719 70.4427 126.625 71.1406 126.625C71.8385 126.625 72.3802 126.677 72.7656 126.781V129.734ZM94.7031 122.094C94.3281 121.969 93.8073 121.906 93.1406 121.906C92.474 121.906 91.9427 121.969 91.5469 122.094C91.1615 122.219 90.8542 122.401 90.625 122.641C90.2292 123.068 90.0312 123.766 90.0312 124.734V126.875H94.0625V129.266H90.0312V143H86.9062V129.266H84.9688V127.797L86.9062 126.875V125.156C86.9062 124.062 87 123.24 87.1875 122.688C87.3854 122.135 87.6198 121.677 87.8906 121.312C88.1615 120.948 88.526 120.63 88.9844 120.359C89.9531 119.786 91.3125 119.5 93.0625 119.5C93.7917 119.5 94.3385 119.542 94.7031 119.625V122.094ZM107.453 129.734C106.88 129.568 106.193 129.484 105.391 129.484C104.599 129.484 103.948 129.568 103.438 129.734C102.927 129.891 102.479 130.083 102.094 130.312C101.385 130.729 100.87 131.198 100.547 131.719V143H97.4219V126.875H100.422L100.547 129.109C101.328 128.13 102.469 127.396 103.969 126.906C104.51 126.719 105.13 126.625 105.828 126.625C106.526 126.625 107.068 126.677 107.453 126.781V129.734ZM114.188 122.188C114.188 122.781 113.99 123.24 113.594 123.562C113.208 123.875 112.724 124.031 112.141 124.031C111.557 124.031 111.073 123.875 110.688 123.562C110.312 123.24 110.125 122.781 110.125 122.188C110.125 121.583 110.312 121.125 110.688 120.812C111.073 120.5 111.557 120.344 112.141 120.344C112.724 120.344 113.208 120.5 113.594 120.812C113.99 121.125 114.188 121.583 114.188 122.188ZM110.531 126.875H113.656V143H110.531V126.875ZM121.016 128.641C121.922 127.943 122.938 127.432 124.062 127.109C125.198 126.786 126.188 126.625 127.031 126.625C127.875 126.625 128.526 126.646 128.984 126.688V119.75H132.094V143H129.297L129.172 141.141C128.536 141.984 127.573 142.609 126.281 143.016C125.781 143.172 125.271 143.25 124.75 143.25C124.24 143.25 123.734 143.198 123.234 143.094C122.734 142.99 122.234 142.818 121.734 142.578C121.245 142.328 120.776 142.005 120.328 141.609C119.88 141.203 119.479 140.708 119.125 140.125C118.375 138.844 118 137.328 118 135.578C118 133.828 118.276 132.411 118.828 131.328C119.391 130.234 120.12 129.339 121.016 128.641ZM122.906 130.5C122.375 131 121.964 131.646 121.672 132.438C121.391 133.219 121.25 134.172 121.25 135.297C121.25 136.411 121.385 137.333 121.656 138.062C121.927 138.781 122.266 139.344 122.672 139.75C123.391 140.479 124.255 140.844 125.266 140.844C126.568 140.844 127.646 140.365 128.5 139.406C128.719 139.167 128.875 138.953 128.969 138.766V129.156L128.656 129.125C128.177 129.062 127.604 129.031 126.938 129.031C126.281 129.031 125.578 129.151 124.828 129.391C124.078 129.62 123.438 129.99 122.906 130.5ZM146.406 149.156C145.5 149.385 144.333 149.5 142.906 149.5C141.49 149.5 140.453 149.396 139.797 149.188V146.406C140.62 146.76 141.625 146.938 142.812 146.938C144.01 146.948 144.891 146.87 145.453 146.703C146.016 146.536 146.458 146.266 146.781 145.891C147.365 145.214 147.656 143.99 147.656 142.219V141.391C146.865 142.182 145.823 142.734 144.531 143.047C144.01 143.172 143.49 143.234 142.969 143.234C142.448 143.234 141.938 143.177 141.438 143.062C140.948 142.948 140.458 142.766 139.969 142.516C139.479 142.255 139.01 141.922 138.562 141.516C138.115 141.099 137.719 140.583 137.375 139.969C136.604 138.635 136.219 136.995 136.219 135.047C136.198 133.245 136.719 131.661 137.781 130.297C138.698 129.109 139.958 128.188 141.562 127.531C143.021 126.927 144.599 126.625 146.297 126.625C147.995 126.625 149.49 126.708 150.781 126.875V142.219C150.781 146.115 149.323 148.427 146.406 149.156ZM147.656 129.156C146.99 129.073 146.333 129.031 145.688 129.031C145.042 129.031 144.318 129.151 143.516 129.391C142.714 129.63 142.01 129.995 141.406 130.484C140.083 131.557 139.422 133.078 139.422 135.047C139.422 137.182 139.938 138.74 140.969 139.719C141.74 140.458 142.682 140.828 143.797 140.828C145.141 140.828 146.271 140.354 147.188 139.406C147.406 139.167 147.562 138.953 147.656 138.766V129.156ZM163.422 143.25C157.526 143.25 154.578 140.37 154.578 134.609C154.578 132.13 155.396 130.146 157.031 128.656C158.5 127.302 160.177 126.625 162.062 126.625C164.115 126.625 165.719 127.312 166.875 128.688C167.948 129.969 168.484 131.682 168.484 133.828V135.047H157.828C157.828 137.995 159.031 139.797 161.438 140.453C162.01 140.609 162.891 140.688 164.078 140.688C165.276 140.688 166.448 140.526 167.594 140.203V142.844C166.448 143.115 165.057 143.25 163.422 143.25ZM165.359 132.75C165.359 131.75 165.083 130.906 164.531 130.219C163.885 129.427 162.995 129.031 161.859 129.031C160.661 129.031 159.688 129.411 158.938 130.172C158.25 130.88 157.906 131.74 157.906 132.75H165.359ZM186.219 122.188C186.219 122.781 186.021 123.24 185.625 123.562C185.24 123.875 184.755 124.031 184.172 124.031C183.589 124.031 183.104 123.875 182.719 123.562C182.344 123.24 182.156 122.781 182.156 122.188C182.156 121.583 182.344 121.125 182.719 120.812C183.104 120.5 183.589 120.344 184.172 120.344C184.755 120.344 185.24 120.5 185.625 120.812C186.021 121.125 186.219 121.583 186.219 122.188ZM182.562 126.875H185.688V143H182.562V126.875ZM194.562 143.25C193.26 143.25 191.943 143.156 190.609 142.969V140.203C191.964 140.526 193.339 140.688 194.734 140.688C197.526 140.688 198.922 140.099 198.922 138.922C198.922 138.474 198.812 138.141 198.594 137.922C198.271 137.578 197.76 137.234 197.062 136.891L194.781 135.844C193.302 135.104 192.344 134.51 191.906 134.062C191.083 133.229 190.672 132.24 190.672 131.094C190.672 129.802 191.271 128.75 192.469 127.938C193.76 127.062 195.573 126.625 197.906 126.625C199.083 126.625 200.271 126.708 201.469 126.875V129.547C200.156 129.307 199.01 129.188 198.031 129.188C197.062 129.188 196.307 129.25 195.766 129.375C195.234 129.5 194.833 129.656 194.562 129.844C194.135 130.135 193.922 130.516 193.922 130.984C193.922 131.443 194.068 131.818 194.359 132.109C194.661 132.391 195.13 132.698 195.766 133.031L198.062 134.141C199.562 134.922 200.526 135.521 200.953 135.938C201.766 136.729 202.172 137.724 202.172 138.922C202.172 140.203 201.526 141.234 200.234 142.016C198.88 142.839 196.99 143.25 194.562 143.25ZM217.984 140.125C217.641 139.531 217.365 138.833 217.156 138.031C216.958 137.229 216.859 136.182 216.859 134.891C216.859 133.599 217.135 132.411 217.688 131.328C218.25 130.234 218.979 129.339 219.875 128.641C221.615 127.297 223.776 126.625 226.359 126.625C227.703 126.625 228.719 126.656 229.406 126.719C229.406 126.719 229.911 126.771 230.922 126.875V143H228.109L227.984 141.141C227.359 141.974 226.406 142.594 225.125 143C224.635 143.156 224.13 143.234 223.609 143.234C223.099 143.234 222.594 143.182 222.094 143.078C221.594 142.974 221.094 142.802 220.594 142.562C220.104 142.323 219.635 142.005 219.188 141.609C218.74 141.203 218.339 140.708 217.984 140.125ZM227.797 129.172C227.13 129.089 226.464 129.047 225.797 129.047C225.141 129.047 224.438 129.167 223.688 129.406C222.938 129.635 222.297 130 221.766 130.5C220.661 131.542 220.109 133.13 220.109 135.266C220.109 137.286 220.583 138.781 221.531 139.75C222.25 140.469 223.115 140.828 224.125 140.828C225.427 140.828 226.5 140.354 227.344 139.406C227.552 139.167 227.703 138.953 227.797 138.766V129.172ZM236.594 119.75H239.719V136.891C239.719 138.953 240.188 140.167 241.125 140.531C241.438 140.656 241.771 140.719 242.125 140.719C242.479 140.719 242.797 140.677 243.078 140.594V143L242.5 143.062C242.312 143.083 242.13 143.094 241.953 143.094C239.953 143.094 238.51 142.438 237.625 141.125C236.938 140.094 236.594 138.688 236.594 136.906V119.75ZM244.438 126.875H247.766L251.906 139.688L256.094 126.875H259.344L263.578 139.641L267.516 126.875H270.609L265.188 143H261.969L257.625 130.781L253.516 143H250.297L244.438 126.875ZM274.016 140.125C273.672 139.531 273.396 138.833 273.188 138.031C272.99 137.229 272.891 136.182 272.891 134.891C272.891 133.599 273.167 132.411 273.719 131.328C274.281 130.234 275.01 129.339 275.906 128.641C277.646 127.297 279.807 126.625 282.391 126.625C283.734 126.625 284.75 126.656 285.438 126.719C285.438 126.719 285.943 126.771 286.953 126.875V143H284.141L284.016 141.141C283.391 141.974 282.438 142.594 281.156 143C280.667 143.156 280.161 143.234 279.641 143.234C279.13 143.234 278.625 143.182 278.125 143.078C277.625 142.974 277.125 142.802 276.625 142.562C276.135 142.323 275.667 142.005 275.219 141.609C274.771 141.203 274.37 140.708 274.016 140.125ZM283.828 129.172C283.161 129.089 282.495 129.047 281.828 129.047C281.172 129.047 280.469 129.167 279.719 129.406C278.969 129.635 278.328 130 277.797 130.5C276.693 131.542 276.141 133.13 276.141 135.266C276.141 137.286 276.615 138.781 277.562 139.75C278.281 140.469 279.146 140.828 280.156 140.828C281.458 140.828 282.531 140.354 283.375 139.406C283.583 139.167 283.734 138.953 283.828 138.766V129.172ZM291.281 147C291.562 147.083 291.943 147.125 292.422 147.125C292.911 147.125 293.411 147.026 293.922 146.828C294.432 146.641 294.875 146.375 295.25 146.031C295.875 145.469 296.443 144.583 296.953 143.375L290.328 126.875H293.656L298.312 139.719L302.484 126.875H305.781L299.156 144.984C298.656 146.339 297.964 147.375 297.078 148.094C295.911 149.031 294.354 149.5 292.406 149.5C292.229 149.5 292.047 149.49 291.859 149.469L291.281 149.406V147ZM311.938 143.25C310.635 143.25 309.318 143.156 307.984 142.969V140.203C309.339 140.526 310.714 140.688 312.109 140.688C314.901 140.688 316.297 140.099 316.297 138.922C316.297 138.474 316.188 138.141 315.969 137.922C315.646 137.578 315.135 137.234 314.438 136.891L312.156 135.844C310.677 135.104 309.719 134.51 309.281 134.062C308.458 133.229 308.047 132.24 308.047 131.094C308.047 129.802 308.646 128.75 309.844 127.938C311.135 127.062 312.948 126.625 315.281 126.625C316.458 126.625 317.646 126.708 318.844 126.875V129.547C317.531 129.307 316.385 129.188 315.406 129.188C314.438 129.188 313.682 129.25 313.141 129.375C312.609 129.5 312.208 129.656 311.938 129.844C311.51 130.135 311.297 130.516 311.297 130.984C311.297 131.443 311.443 131.818 311.734 132.109C312.036 132.391 312.505 132.698 313.141 133.031L315.438 134.141C316.938 134.922 317.901 135.521 318.328 135.938C319.141 136.729 319.547 137.724 319.547 138.922C319.547 140.203 318.901 141.234 317.609 142.016C316.255 142.839 314.365 143.25 311.938 143.25ZM342.828 122.094C342.453 121.969 341.932 121.906 341.266 121.906C340.599 121.906 340.068 121.969 339.672 122.094C339.286 122.219 338.979 122.401 338.75 122.641C338.354 123.068 338.156 123.766 338.156 124.734V126.875H342.188V129.266H338.156V143H335.031V129.266H333.094V127.797L335.031 126.875V125.156C335.031 124.062 335.125 123.24 335.312 122.688C335.51 122.135 335.745 121.677 336.016 121.312C336.286 120.948 336.651 120.63 337.109 120.359C338.078 119.786 339.438 119.5 341.188 119.5C341.917 119.5 342.464 119.542 342.828 119.625V122.094ZM355.844 139.047V126.875H358.969V143H356.156L355.875 141.297C354.333 142.599 352.63 143.25 350.766 143.25C348.786 143.25 347.385 142.703 346.562 141.609C345.708 140.495 345.281 138.573 345.281 135.844V126.875H348.406V135.688C348.406 137.615 348.682 138.927 349.234 139.625C349.724 140.25 350.656 140.562 352.031 140.562C353.417 140.562 354.688 140.057 355.844 139.047ZM364.688 119.75H367.812V136.891C367.812 138.953 368.281 140.167 369.219 140.531C369.531 140.656 369.865 140.719 370.219 140.719C370.573 140.719 370.891 140.677 371.172 140.594V143L370.594 143.062C370.406 143.083 370.224 143.094 370.047 143.094C368.047 143.094 366.604 142.438 365.719 141.125C365.031 140.094 364.688 138.688 364.688 136.906V119.75ZM375.375 119.75H378.5V136.891C378.5 138.953 378.969 140.167 379.906 140.531C380.219 140.656 380.552 140.719 380.906 140.719C381.26 140.719 381.578 140.677 381.859 140.594V143L381.281 143.062C381.094 143.083 380.911 143.094 380.734 143.094C378.734 143.094 377.292 142.438 376.406 141.125C375.719 140.094 375.375 138.688 375.375 136.906V119.75ZM385.406 120.344H388.531L388.281 136.531H385.656L385.406 120.344ZM386.969 143.391C386.344 143.391 385.823 143.224 385.406 142.891C385 142.547 384.797 142.057 384.797 141.422C384.797 140.776 385 140.281 385.406 139.938C385.823 139.594 386.344 139.422 386.969 139.422C387.604 139.422 388.13 139.594 388.547 139.938C388.964 140.281 389.172 140.776 389.172 141.422C389.172 142.057 388.964 142.547 388.547 142.891C388.13 143.224 387.604 143.391 386.969 143.391Z" fill="white"/>
</g>
<defs>
<filter id="filter0_d_3_27" x="11.2188" y="24.25" width="486.172" height="97.25" filterUnits="userSpaceOnUse" color-interpolation-filters="sRGB">
<feFlood flood-opacity="0" result="BackgroundImageFix"/>
<feColorMatrix in="SourceAlpha" type="matrix" values="0 0 0 0 0 0 0 0 0 0 0 0 0 0 0 0 0 0 127 0" result="hardAlpha"/>
<feOffset dx="4" dy="2"/>
<feGaussianBlur stdDeviation="2"/>
<feComposite in2="hardAlpha" operator="out"/>
<feColorMatrix type="matrix" values="0 0 0 0 0 0 0 0 0 0 0 0 0 0 0 0 0 0 0.5 0"/>
<feBlend mode="normal" in2="BackgroundImageFix" result="effect1_dropShadow_3_27"/>
<feBlend mode="normal" in="SourceGraphic" in2="effect1_dropShadow_3_27" result="shape"/>
</filter>
<filter id="filter1_d_3_27" x="0" y="119.5" width="393.172" height="38" filterUnits="userSpaceOnUse" color-interpolation-filters="sRGB">
<feFlood flood-opacity="0" result="BackgroundImageFix"/>
<feColorMatrix in="SourceAlpha" type="matrix" values="0 0 0 0 0 0 0 0 0 0 0 0 0 0 0 0 0 0 127 0" result="hardAlpha"/>
<feOffset dy="4"/>
<feGaussianBlur stdDeviation="2"/>
<feComposite in2="hardAlpha" operator="out"/>
<feColorMatrix type="matrix" values="0 0 0 0 0 0 0 0 0 0 0 0 0 0 0 0 0 0 0.25 0"/>
<feBlend mode="normal" in2="BackgroundImageFix" result="effect1_dropShadow_3_27"/>
<feBlend mode="normal" in="SourceGraphic" in2="effect1_dropShadow_3_27" result="shape"/>
</filter>
</defs>
</svg>
