<svg width="60" height="100" viewBox="0 0 60 100" fill="none" xmlns="http://www.w3.org/2000/svg">
<path d="M48.7499 0H11.2499C8.48826 0.00330804 5.84066 1.10184 3.88788 3.05462C1.93509 5.00741 0.83656 7.65501 0.833252 10.4167V89.5833C0.83656 92.345 1.93509 94.9926 3.88788 96.9454C5.84066 98.8982 8.48826 99.9967 11.2499 100H48.7499C51.5116 99.9967 54.1592 98.8982 56.112 96.9454C58.0648 94.9926 59.1633 92.345 59.1666 89.5833V10.4167C59.1633 7.65501 58.0648 5.00741 56.112 3.05462C54.1592 1.10184 51.5116 0.00330804 48.7499 0V0ZM4.99992 10.4167C4.99992 8.75906 5.6584 7.16935 6.8305 5.99725C8.0026 4.82515 9.59232 4.16667 11.2499 4.16667H48.7499C50.4075 4.16667 51.9972 4.82515 53.1693 5.99725C54.3414 7.16935 54.9999 8.75906 54.9999 10.4167V33.3333H4.99992V10.4167ZM54.9999 89.5833C54.9999 91.2409 54.3414 92.8306 53.1693 94.0027C51.9972 95.1748 50.4075 95.8333 48.7499 95.8333H11.2499C9.59232 95.8333 8.0026 95.1748 6.8305 94.0027C5.6584 92.8306 4.99992 91.2409 4.99992 89.5833V37.5H54.9999V89.5833Z" fill="white"/>
<path d="M11.2498 12.5C10.6973 12.5 10.1674 12.7195 9.7767 13.1102C9.386 13.5009 9.1665 14.0308 9.1665 14.5833V22.9167C9.1665 23.4692 9.386 23.9991 9.7767 24.3898C10.1674 24.7805 10.6973 25 11.2498 25C11.8024 25 12.3323 24.7805 12.723 24.3898C13.1137 23.9991 13.3332 23.4692 13.3332 22.9167V14.5833C13.3332 14.0308 13.1137 13.5009 12.723 13.1102C12.3323 12.7195 11.8024 12.5 11.2498 12.5Z" fill="white"/>
<path d="M11.2498 66.6667C11.8024 66.6667 12.3323 66.4472 12.723 66.0565C13.1137 65.6658 13.3332 65.1359 13.3332 64.5833V50C13.3332 49.4475 13.1137 48.9175 12.723 48.5268C12.3323 48.1361 11.8024 47.9167 11.2498 47.9167C10.6973 47.9167 10.1674 48.1361 9.7767 48.5268C9.386 48.9175 9.1665 49.4475 9.1665 50V64.5833C9.1665 65.1359 9.386 65.6658 9.7767 66.0565C10.1674 66.4472 10.6973 66.6667 11.2498 66.6667Z" fill="white"/>
</svg>
